<svg width="20" height="20" viewBox="0 0 20 20" fill="none" xmlns="http://www.w3.org/2000/svg">
<g clip-path="url(#clip0_47_578)">
<path d="M5 16C5 16 4 16 4 15C4 14 5 11 10 11C15 11 16 14 16 15C16 16 15 16 15 16H5ZM13 7C13 7.79565 12.6839 8.55871 12.1213 9.12132C11.5587 9.68393 10.7957 10 10 10C9.20435 10 8.44129 9.68393 7.87868 9.12132C7.31607 8.55871 7 7.79565 7 7C7 6.20435 7.31607 5.44129 7.87868 4.87868C8.44129 4.31607 9.20435 4 10 4C10.7957 4 11.5587 4.31607 12.1213 4.87868C12.6839 5.44129 13 6.20435 13 7Z" fill="#F1F1F1"/>
</g>
<defs>
<clipPath id="clip0_47_578">
<rect width="12" height="12" fill="white" transform="translate(4 4)"/>
</clipPath>
</defs>
</svg>
