<svg width="233" height="217" viewBox="0 0 233 217" fill="none" xmlns="http://www.w3.org/2000/svg">
<path d="M0.017069 98.1688C0.785329 65.1255 27.3692 43.3241 55.7634 36.3079C71.0232 13.0585 99.8478 0 129.222 0C150.778 0 171.097 6.8275 186.501 18.9142C201.867 30.9709 213.37 49.3082 213.428 71.4466C224.592 80.5777 233 94.0983 233 111.159C233 111.351 232.999 111.543 232.997 111.734H233V163.704L232.989 163.704C232.639 180.539 223.843 194.168 212.768 202.952C201.473 211.912 186.812 216.858 171.479 216.997L171.479 216.993L171.232 216.999L171.036 217L170.813 217L170.589 217L77.3554 216.998C76.4557 216.999 71.3116 217 68.8693 217L67.5829 217C45.5478 217 27.1306 211.258 14.7154 197.086C2.81684 183.504 0.111769 166.29 0.00345103 152.055L0 152.055V98.1688H0.017069Z" fill="white"/>
<path d="M16.0147 102.056C16.6749 75.1095 39.52 57.3306 63.9209 51.6089C77.0345 32.6492 101.805 22 127.048 22C145.573 22 163.034 27.5678 176.272 37.4244C189.477 47.2566 199.361 62.2106 199.411 80.2643C209.005 87.7107 216.231 98.7367 216.231 112.65C216.231 112.806 216.23 112.963 216.228 113.119H216.231V155.5L216.222 155.5C215.921 169.229 208.361 180.343 198.845 187.506C189.138 194.813 176.539 198.847 163.362 198.96L163.362 198.957L163.15 198.962L162.981 198.962L162.789 198.962L162.598 198.962L82.4762 198.961C81.7029 198.962 77.2823 198.962 75.1835 198.962L74.078 198.962C55.142 198.962 39.315 194.28 28.6458 182.723C18.4207 171.647 16.096 157.609 16.003 146L16 146V102.056H16.0147Z" fill="black"/>
<path d="M162.479 139.295L82.3998 139.293C82.26 139.294 74.1512 139.295 74.011 139.295C41.4144 139.295 33.6795 123.17 33.6795 103.279C33.6795 85.1388 51.6665 70.1307 75.0674 67.6302C82.2582 51.4096 102.756 39.7049 126.92 39.7049C157.075 39.7049 181.52 57.9327 181.52 80.4178C181.52 83.5343 181.051 86.569 180.161 89.4847C191.002 94.0538 198.32 102.727 198.32 112.675C198.32 127.272 182.563 139.125 163.04 139.293L164.619 139.254L162.761 139.295C162.714 139.295 162.667 139.295 162.62 139.295C162.573 139.295 162.526 139.295 162.479 139.295Z" fill="white"/>
<path fill-rule="evenodd" clip-rule="evenodd" d="M162.761 139.295L162.62 139.295L162.479 139.295L82.3998 139.293C82.26 139.294 74.1512 139.295 74.011 139.295C41.4144 139.295 33.6795 123.17 33.6795 103.279C33.6795 85.1388 51.6665 70.1307 75.0674 67.6302C82.2582 51.4096 102.756 39.7049 126.92 39.7049C157.075 39.7049 181.52 57.9327 181.52 80.4178C181.52 83.5343 181.051 86.569 180.161 89.4847C191.002 94.0538 198.32 102.727 198.32 112.675C198.32 126.87 183.419 138.471 164.644 139.253C164.636 139.253 164.627 139.254 164.619 139.254L162.761 139.295ZM163.04 139.293L164.619 139.254C164.096 139.276 163.569 139.289 163.04 139.293ZM163.192 156.995L162.98 156.999L162.812 157L162.62 157L162.429 157L82.3995 156.998C81.3846 156.999 74.0786 157 74.011 157C74.011 157 74.0111 157 74.011 157M74.011 157C55.0969 157 39.2881 152.316 28.6313 140.756C18.1989 129.439 16 115.031 16 103.279C16 75.6526 39.1327 57.425 63.8656 51.6171C76.9641 32.6521 101.706 22 126.92 22C145.423 22 162.864 27.5693 176.087 37.4287C189.277 47.2637 199.15 62.2218 199.2 80.2806C208.783 87.729 216 98.7581 216 112.675C216 126.799 208.335 138.228 198.634 145.541C188.938 152.849 176.354 156.884 163.192 156.998L163.192 156.995" fill="black"/>
</svg>
